# xmcd
#
# Track frame offsets: 
#        150
#        19335
#        37598
#        57497
#        72066
#        85415
#        101415
#        114706
#        126773
#        142820
#        162142
#
# Disc length: 2349 seconds
#
# Revision: 0
# Processed by: cddbd v1.5.2PL0 Copyright (c) Steve Scherf et al.
# Submitted via: ExactAudioCopy v1.0b3
#
DISCID=89092b0b
DTITLE=Good Old Boys - Good Old Boys Live: Drink Up And Go Home - Disc
DTITLE=1
DYEAR=2018
DGENRE=Bluegrass
TTITLE0=Ashes Of Love
TTITLE1=Deep Elem Blues
TTITLE2=Dim Lights
TTITLE3=Toy Heart
TTITLE4=Fireball Mail
TTITLE5=I'll Never Make You Blue
TTITLE6=All The Good Times
TTITLE7=She's No Angel
TTITLE8=Here To Get My Baby Out Of Jail
TTITLE9=Wildwood Flower
TTITLE10=Teardrops In My Eyes
EXTD=
EXTT0=
EXTT1=
EXTT2=
EXTT3=
EXTT4=
EXTT5=
EXTT6=
EXTT7=
EXTT8=
EXTT9=
EXTT10=
PLAYORDER=
